Coordinates
version=1
nRows=17
nColumns=38
inDegrees=no

Units are S.I. units (second, meters, Newtons, ...)
If the header above contains a line with 'inDegrees', this indicates whether rotational values are in degrees (yes) or radians (no).

endheader
time	pelvis_tilt	pelvis_list	pelvis_rotation	pelvis_tx	pelvis_ty	pelvis_tz	hip_flexion_r	hip_adduction_r	hip_rotation_r	knee_angle_r	ankle_angle_r	subtalar_angle_r	mtp_angle_r	hip_flexion_l	hip_adduction_l	hip_rotation_l	knee_angle_l	ankle_angle_l	subtalar_angle_l	mtp_angle_l	lumbar_extension	lumbar_bending	lumbar_rotation	arm_flex_r	arm_add_r	arm_rot_r	elbow_flex_r	pro_sup_r	wrist_flex_r	wrist_dev_r	arm_flex_l	arm_add_l	arm_rot_l	elbow_flex_l	pro_sup_l	wrist_flex_l	wrist_dev_l
0.87	0.143164	1.46113	-1.72097	0.774462	1.20162	0.950028	0.345355	-0.223506	-0.204025	1.0045	0.107309	0	0	-0.0971927	0.0748364	-0.147721	0.192653	0.102831	0	0	-0.200888	-0.0180039	-0.142016	-0.0207076	-0.310816	0.384574	0.729519	1.27401	0	0	-0.0940424	-0.404184	0.243027	0.869458	0.977712	0	0
0.88	0.115755	1.46144	-1.69109	0.774727	1.19365	0.950565	0.350773	-0.220938	-0.219773	0.961426	0.11572	0	0	-0.112919	0.0724372	-0.143058	0.181258	0.104284	0	0	-0.202031	-0.0135605	-0.145163	-0.0204096	-0.312433	0.384527	0.736226	1.27071	0	0	-0.0902292	-0.406882	0.235804	0.878304	0.980335	0	0
0.89	0.0907872	1.45812	-1.66287	0.775224	1.18562	0.951321	0.349616	-0.219206	-0.239014	0.914527	0.124876	0	0	-0.137291	0.0716431	-0.129281	0.159585	0.0996049	0	0	-0.207442	-0.00946155	-0.148244	-0.0215785	-0.311005	0.367443	0.742837	1.31014	0	0	-0.0863654	-0.408668	0.225539	0.887578	0.998225	0	0
0.9	0.0761237	1.45781	-1.64552	0.775416	1.17773	0.951495	0.352315	-0.216888	-0.256846	0.86723	0.131573	0	0	-0.154709	0.0705581	-0.121627	0.145195	0.0995781	0	0	-0.209415	-0.00662207	-0.150723	-0.0218769	-0.311627	0.363463	0.749859	1.31491	0	0	-0.0826653	-0.412071	0.219558	0.8977	1.00454	0	0
0.91	0.0694601	1.45861	-1.63657	0.775402	1.16989	0.951316	0.356143	-0.213937	-0.273687	0.818875	0.135417	0	0	-0.170044	0.069974	-0.115225	0.132326	0.100577	0	0	-0.210282	-0.00491595	-0.152681	-0.0221531	-0.311906	0.361123	0.755992	1.32109	0	0	-0.0793689	-0.415704	0.213816	0.909115	1.01105	0	0
0.92	0.0716861	1.46041	-1.63663	0.775277	1.16221	0.950804	0.361294	-0.210808	-0.28961	0.770117	0.137877	0	0	-0.183267	0.070118	-0.109162	0.121179	0.102449	0	0	-0.210436	-0.00434524	-0.154222	-0.0224649	-0.312007	0.359723	0.761506	1.3276	0	0	-0.0759007	-0.419733	0.209092	0.920775	1.01765	0	0
0.93	0.0797968	1.4631	-1.64327	0.774947	1.15451	0.949968	0.367758	-0.207012	-0.303712	0.721448	0.139948	0	0	-0.194879	0.0706722	-0.104545	0.111285	0.105546	0	0	-0.209645	-0.00467978	-0.154679	-0.0231232	-0.311862	0.35814	0.766588	1.3332	0	0	-0.0724812	-0.424053	0.205469	0.932386	1.02423	0	0
0.94	0.0928874	1.46677	-1.65588	0.774398	1.14689	0.948831	0.375785	-0.202168	-0.315504	0.673294	0.141767	0	0	-0.205002	0.0715266	-0.101462	0.102173	0.109612	0	0	-0.207948	-0.00568359	-0.153881	-0.0236581	-0.311237	0.354791	0.771495	1.33699	0	0	-0.06907	-0.428288	0.202413	0.943505	1.03071	0	0
0.95	0.110509	1.47119	-1.67374	0.773617	1.1393	0.947421	0.384988	-0.195916	-0.32353	0.625628	0.142393	0	0	-0.213673	0.0725849	-0.0994356	0.0940651	0.114432	0	0	-0.20556	-0.00726531	-0.151912	-0.0241646	-0.310751	0.353993	0.774774	1.34246	0	0	-0.0652234	-0.432461	0.2003	0.953722	1.03695	0	0
0.96	0.134415	1.47624	-1.69807	0.772751	1.13187	0.945767	0.395009	-0.188745	-0.328086	0.578427	0.142908	0	0	-0.220739	0.0738912	-0.098371	0.0874579	0.120447	0	0	-0.202749	-0.00925239	-0.14969	-0.0242219	-0.310273	0.355528	0.776605	1.34685	0	0	-0.0613329	-0.436481	0.198319	0.963358	1.04259	0	0
0.97	0.184426	1.48145	-1.74184	0.771505	1.12443	0.943899	0.406038	-0.175895	-0.321941	0.532741	0.138555	0	0	-0.227501	0.0699716	-0.105914	0.0791688	0.131641	0	0	-0.199648	-0.0142267	-0.150944	-0.0257249	-0.307878	0.355279	0.777852	1.34706	0	0	-0.0554808	-0.441723	0.197508	0.972086	1.04706	0	0
0.98	0.213007	1.48679	-1.7718	0.770531	1.11701	0.941973	0.414925	-0.168299	-0.320188	0.485184	0.141626	0	0	-0.234041	0.0710521	-0.105821	0.0729012	0.138551	0	0	-0.196882	-0.0156643	-0.147747	-0.0247503	-0.306808	0.354325	0.778285	1.34247	0	0	-0.0512542	-0.444864	0.19659	0.978946	1.05212	0	0
0.99	0.246398	1.49221	-1.80711	0.769455	1.10955	0.939914	0.423457	-0.159784	-0.314221	0.438264	0.145378	0	0	-0.240582	0.0723196	-0.105439	0.0663887	0.145261	0	0	-0.193927	-0.0171203	-0.144175	-0.0230697	-0.306436	0.357835	0.777248	1.33237	0	0	-0.0470465	-0.447312	0.195881	0.984099	1.056	0	0
1	0.285468	1.49737	-1.84812	0.768335	1.10202	0.937777	0.431002	-0.150901	-0.30417	0.391886	0.149302	0	0	-0.247767	0.0737535	-0.104001	0.0588858	0.151039	0	0	-0.191279	-0.0185811	-0.139941	-0.0221965	-0.302301	0.345733	0.772379	1.37223	0	0	-0.0419138	-0.449134	0.196697	0.988963	1.05611	0	0
1.01	0.321861	1.50196	-1.88625	0.767216	1.09439	0.93561	0.436835	-0.141393	-0.290367	0.346194	0.152114	0	0	-0.255026	0.0746249	-0.103397	0.0528373	0.157552	0	0	-0.189082	-0.0192656	-0.136213	-0.0200009	-0.301342	0.348025	0.767704	1.37941	0	0	-0.0374213	-0.450081	0.195818	0.992546	1.06007	0	0
1.02	0.351907	1.50537	-1.91739	0.766175	1.08661	0.933529	0.43941	-0.13167	-0.273048	0.300503	0.153134	0	0	-0.264196	0.0751042	-0.10126	0.0459736	0.163309	0	0	-0.188098	-0.0191621	-0.13297	-0.0176371	-0.300446	0.3498	0.762269	1.38502	0	0	-0.0328751	-0.450414	0.195587	0.993119	1.06449	0	0
1.03	0.376491	1.5078	-1.94213	0.765203	1.07861	0.931517	0.43921	-0.122729	-0.254556	0.256522	0.152143	0	0	-0.274282	0.0751066	-0.0989174	0.0399581	0.169362	0	0	-0.187886	-0.0185739	-0.130501	-0.0153867	-0.299269	0.35062	0.756064	1.38804	0	0	-0.0280262	-0.450099	0.196767	0.991058	1.06613	0	0
